<?xml version="1.0" encoding="UTF-8" standalone="no"?>
<!DOCTYPE svg PUBLIC "-//W3C//DTD SVG 1.1//EN"
 "http://www.w3.org/Graphics/SVG/1.1/DTD/svg11.dtd">
<!-- Generated by graphviz version 2.40.1 (20161225.0304)
 -->
<!-- Title: G Pages: 1 -->
<svg width="290pt" height="584pt"
 viewBox="0.00 0.00 289.50 584.00" xmlns="http://www.w3.org/2000/svg" xmlns:xlink="http://www.w3.org/1999/xlink">
<g id="graph0" class="graph" transform="scale(1 1) rotate(0) translate(4 580)">
<title>G</title>
<polygon fill="#ffffff" stroke="transparent" points="-4,4 -4,-580 285.5,-580 285.5,4 -4,4"/>
<!-- A0 -->
<g id="node1" class="node">
<title>A0</title>
<polygon fill="none" stroke="#000000" points="128.8027,-576 60.1973,-576 60.1973,-540 128.8027,-540 128.8027,-576"/>
<text text-anchor="middle" x="94.5" y="-555" font-family="Helvetica,sans-Serif" font-size="10.00" fill="#000000">+Student</text>
</g>
<!-- A2 -->
<g id="node3" class="node">
<title>A2</title>
<polygon fill="none" stroke="#000000" points="65.5,-458 65.5,-490 205.5,-490 205.5,-458 65.5,-458"/>
<text text-anchor="start" x="100.6305" y="-471" font-family="Helvetica,sans-Serif" font-size="10.00" fill="#000000">+ManageClass </text>
<polygon fill="none" stroke="#000000" points="65.5,-390 65.5,-458 205.5,-458 205.5,-390 65.5,-390"/>
<text text-anchor="start" x="96.173" y="-439" font-family="Helvetica,sans-Serif" font-size="10.00" fill="#000000"> +student:Student</text>
<text text-anchor="start" x="107.3035" y="-415" font-family="Helvetica,sans-Serif" font-size="10.00" fill="#000000">+class:Class</text>
<text text-anchor="start" x="134.1105" y="-403" font-family="Helvetica,sans-Serif" font-size="10.00" fill="#000000"> </text>
<polygon fill="none" stroke="#000000" points="65.5,-250 65.5,-390 205.5,-390 205.5,-250 65.5,-250"/>
<text text-anchor="start" x="95.9115" y="-371" font-family="Helvetica,sans-Serif" font-size="10.00" fill="#000000"> +IsCopy(Class a,</text>
<text text-anchor="start" x="106.3305" y="-359" font-family="Helvetica,sans-Serif" font-size="10.00" fill="#000000">Class b):bool</text>
<text text-anchor="start" x="102.5865" y="-335" font-family="Helvetica,sans-Serif" font-size="10.00" fill="#000000">+Enroll():Class</text>
<text text-anchor="start" x="107.5845" y="-311" font-family="Helvetica,sans-Serif" font-size="10.00" fill="#000000">+Drop(Class</text>
<text text-anchor="start" x="104.936" y="-299" font-family="Helvetica,sans-Serif" font-size="10.00" fill="#000000">dropped):void</text>
<text text-anchor="start" x="75.076" y="-275" font-family="Helvetica,sans-Serif" font-size="10.00" fill="#000000">+CheckPrerequisites():bool</text>
<text text-anchor="start" x="83.14" y="-263" font-family="Helvetica,sans-Serif" font-size="10.00" fill="#000000"> +AddToWaitlist():Class</text>
<polygon fill="none" stroke="#000000" points="65.5,-194 65.5,-250 205.5,-250 205.5,-194 65.5,-194"/>
<text text-anchor="start" x="87.857" y="-231" font-family="Helvetica,sans-Serif" font-size="10.00" fill="#000000">+ManageClass(Class</text>
<text text-anchor="start" x="104.1005" y="-219" font-family="Helvetica,sans-Serif" font-size="10.00" fill="#000000">class, Student</text>
<text text-anchor="start" x="117.4385" y="-207" font-family="Helvetica,sans-Serif" font-size="10.00" fill="#000000">student)</text>
</g>
<!-- A0&#45;&gt;A2 -->
<g id="edge1" class="edge">
<title>A0&#45;&gt;A2</title>
<path fill="none" stroke="#000000" d="M99.8008,-530.0736C101.9251,-518.8822 104.5462,-505.0734 107.3957,-490.0615"/>
<polygon fill="#000000" stroke="#000000" points="97.9251,-539.9555 95.369,-529.2917 98.8576,-535.0432 99.79,-530.1309 99.79,-530.1309 99.79,-530.1309 98.8576,-535.0432 104.2111,-530.9701 97.9251,-539.9555 97.9251,-539.9555"/>
</g>
<!-- A1 -->
<g id="node2" class="node">
<title>A1</title>
<polygon fill="none" stroke="#000000" points="205.8362,-576 147.1638,-576 147.1638,-540 205.8362,-540 205.8362,-576"/>
<text text-anchor="middle" x="176.5" y="-555" font-family="Helvetica,sans-Serif" font-size="10.00" fill="#000000">+Class</text>
</g>
<!-- A1&#45;&gt;A2 -->
<g id="edge2" class="edge">
<title>A1&#45;&gt;A2</title>
<path fill="none" stroke="#000000" d="M171.1992,-530.0736C169.0749,-518.8822 166.4538,-505.0734 163.6043,-490.0615"/>
<polygon fill="#000000" stroke="#000000" points="173.0749,-539.9555 166.7889,-530.9701 172.1424,-535.0432 171.21,-530.1309 171.21,-530.1309 171.21,-530.1309 172.1424,-535.0432 175.631,-529.2917 173.0749,-539.9555 173.0749,-539.9555"/>
</g>
<!-- A3 -->
<g id="node4" class="node">
<title>A3</title>
<polygon fill="none" stroke="#000000" points=".5,-94 .5,-126 121.5,-126 121.5,-94 .5,-94"/>
<text text-anchor="start" x="35.0255" y="-107" font-family="Helvetica,sans-Serif" font-size="10.00" fill="#000000">+Waitlisted </text>
<polygon fill="none" stroke="#000000" points=".5,-50 .5,-94 121.5,-94 121.5,-50 .5,-50"/>
<text text-anchor="start" x="31.414" y="-75" font-family="Helvetica,sans-Serif" font-size="10.00" fill="#000000"> +class:Class</text>
<text text-anchor="start" x="23.0625" y="-63" font-family="Helvetica,sans-Serif" font-size="10.00" fill="#000000">+student:Student</text>
<polygon fill="none" stroke="#000000" points=".5,-18 .5,-50 121.5,-50 121.5,-18 .5,-18"/>
<text text-anchor="start" x="10.0315" y="-31" font-family="Helvetica,sans-Serif" font-size="10.00" fill="#000000"> +WaitListWilling():bool</text>
</g>
<!-- A2&#45;&gt;A3 -->
<g id="edge4" class="edge">
<title>A2&#45;&gt;A3</title>
<path fill="none" stroke="#000000" d="M91.6338,-184.0815C85.8824,-163.3768 80.3369,-143.4129 75.5599,-126.2155"/>
<polygon fill="#000000" stroke="#000000" points="94.3795,-193.9663 87.3672,-185.5356 93.0413,-189.1487 91.703,-184.3311 91.703,-184.3311 91.703,-184.3311 93.0413,-189.1487 96.0389,-183.1267 94.3795,-193.9663 94.3795,-193.9663"/>
</g>
<!-- A4 -->
<g id="node5" class="node">
<title>A4</title>
<polygon fill="none" stroke="#000000" points="139.5,-112 139.5,-144 281.5,-144 281.5,-112 139.5,-112"/>
<text text-anchor="start" x="175.3465" y="-125" font-family="Helvetica,sans-Serif" font-size="10.00" fill="#000000">+ShowShedule </text>
<polygon fill="none" stroke="#000000" points="139.5,-68 139.5,-112 281.5,-112 281.5,-68 139.5,-68"/>
<text text-anchor="start" x="171.173" y="-93" font-family="Helvetica,sans-Serif" font-size="10.00" fill="#000000"> +student:Student</text>
<text text-anchor="start" x="209.1105" y="-81" font-family="Helvetica,sans-Serif" font-size="10.00" fill="#000000"> </text>
<polygon fill="none" stroke="#000000" points="139.5,0 139.5,-68 281.5,-68 281.5,0 139.5,0"/>
<text text-anchor="start" x="173.2815" y="-49" font-family="Helvetica,sans-Serif" font-size="10.00" fill="#000000"> (Windows forms</text>
<text text-anchor="start" x="169.653" y="-37" font-family="Helvetica,sans-Serif" font-size="10.00" fill="#000000">handling methods.</text>
<text text-anchor="start" x="174.3935" y="-25" font-family="Helvetica,sans-Serif" font-size="10.00" fill="#000000">Will interact with</text>
<text text-anchor="start" x="149.0915" y="-13" font-family="Helvetica,sans-Serif" font-size="10.00" fill="#000000">student.ProjectedSchedule)</text>
</g>
<!-- A2&#45;&gt;A4 -->
<g id="edge3" class="edge">
<title>A2&#45;&gt;A4</title>
<path fill="none" stroke="#000000" d="M179.3159,-184.2627C183.191,-170.3124 186.9734,-156.6956 190.4912,-144.0315"/>
<polygon fill="#000000" stroke="#000000" points="176.6205,-193.9663 174.9611,-183.1267 177.9587,-189.1487 179.297,-184.3311 179.297,-184.3311 179.297,-184.3311 177.9587,-189.1487 183.6328,-185.5356 176.6205,-193.9663 176.6205,-193.9663"/>
</g>
</g>
</svg>
