<?xml version="1.0" encoding="UTF-8" standalone="no"?>
<!DOCTYPE svg PUBLIC "-//W3C//DTD SVG 1.1//EN"
 "http://www.w3.org/Graphics/SVG/1.1/DTD/svg11.dtd">
<!-- Generated by graphviz version 2.40.1 (20161225.0304)
 -->
<!-- Title: G Pages: 1 -->
<svg width="505pt" height="686pt"
 viewBox="0.00 0.00 504.50 686.00" xmlns="http://www.w3.org/2000/svg" xmlns:xlink="http://www.w3.org/1999/xlink">
<g id="graph0" class="graph" transform="scale(1 1) rotate(0) translate(4 682)">
<title>G</title>
<polygon fill="#ffffff" stroke="transparent" points="-4,4 -4,-682 500.5,-682 500.5,4 -4,4"/>
<!-- A0 -->
<g id="node1" class="node">
<title>A0</title>
<polygon fill="none" stroke="#000000" points="95.5,-646 95.5,-678 330.5,-678 330.5,-646 95.5,-646"/>
<text text-anchor="start" x="188.9595" y="-659" font-family="Helvetica,sans-Serif" font-size="10.00" fill="#000000">+Student:s</text>
<polygon fill="none" stroke="#000000" points="95.5,-518 95.5,-646 330.5,-646 330.5,-518 95.5,-518"/>
<text text-anchor="start" x="180.076" y="-627" font-family="Helvetica,sans-Serif" font-size="10.00" fill="#000000">+name:string:s</text>
<text text-anchor="start" x="180.0815" y="-615" font-family="Helvetica,sans-Serif" font-size="10.00" fill="#000000">+major:string:s</text>
<text text-anchor="start" x="132.2795" y="-603" font-family="Helvetica,sans-Serif" font-size="10.00" fill="#000000"> +projectedSchedule:List&lt;Course&gt;:s</text>
<text text-anchor="start" x="141.731" y="-591" font-family="Helvetica,sans-Serif" font-size="10.00" fill="#000000"> +savedCourses:List&lt;Course&gt;:s</text>
<text text-anchor="start" x="132.0085" y="-579" font-family="Helvetica,sans-Serif" font-size="10.00" fill="#000000"> +completedCourses:List&lt;Course&gt;:s</text>
<text text-anchor="start" x="136.729" y="-567" font-family="Helvetica,sans-Serif" font-size="10.00" fill="#000000"> +enrolledCourses:List&lt;Section&gt;:s</text>
<text text-anchor="start" x="105.3455" y="-555" font-family="Helvetica,sans-Serif" font-size="10.00" fill="#000000">+requirements:Dictionary&lt;string,Requirement&gt;:s</text>
<text text-anchor="start" x="174.2435" y="-543" font-family="Helvetica,sans-Serif" font-size="10.00" fill="#000000">+totalCredits:int:s</text>
<text text-anchor="start" x="188.41" y="-531" font-family="Helvetica,sans-Serif" font-size="10.00" fill="#000000"> +year:int:s</text>
</g>
<!-- A1 -->
<g id="node2" class="node">
<title>A1</title>
<polygon fill="none" stroke="#000000" points="58.5,-434 58.5,-466 183.5,-466 183.5,-434 58.5,-434"/>
<text text-anchor="start" x="101.968" y="-447" font-family="Helvetica,sans-Serif" font-size="10.00" fill="#000000">+Course</text>
<polygon fill="none" stroke="#000000" points="58.5,-318 58.5,-434 183.5,-434 183.5,-318 58.5,-318"/>
<text text-anchor="start" x="100.5795" y="-415" font-family="Helvetica,sans-Serif" font-size="10.00" fill="#000000">+id:string</text>
<text text-anchor="start" x="104.4685" y="-403" font-family="Helvetica,sans-Serif" font-size="10.00" fill="#000000">+crn:int</text>
<text text-anchor="start" x="91.9655" y="-391" font-family="Helvetica,sans-Serif" font-size="10.00" fill="#000000">+name:string</text>
<text text-anchor="start" x="80.298" y="-379" font-family="Helvetica,sans-Serif" font-size="10.00" fill="#000000">+description:string</text>
<text text-anchor="start" x="69.46" y="-367" font-family="Helvetica,sans-Serif" font-size="10.00" fill="#000000">+requisites:List&lt;string&gt;</text>
<text text-anchor="start" x="68.064" y="-355" font-family="Helvetica,sans-Serif" font-size="10.00" fill="#000000">+sections:List&lt;Section&gt;</text>
<text text-anchor="start" x="95.3" y="-343" font-family="Helvetica,sans-Serif" font-size="10.00" fill="#000000">+yearLvl:int</text>
<text text-anchor="start" x="96.69" y="-331" font-family="Helvetica,sans-Serif" font-size="10.00" fill="#000000">+credits:int</text>
</g>
<!-- A0&#45;&gt;A1 -->
<g id="edge2" class="edge">
<title>A0&#45;&gt;A1</title>
<path fill="none" stroke="#000000" d="M176.667,-517.7652C169.099,-500.8194 161.1445,-483.0084 153.6796,-466.2934"/>
<text text-anchor="middle" x="168.7888" y="-476.3973" font-family="Helvetica,sans-Serif" font-size="10.00" fill="#000000">0..*</text>
<text text-anchor="middle" x="161.5578" y="-501.6613" font-family="Helvetica,sans-Serif" font-size="10.00" fill="#000000">1</text>
</g>
<!-- A5 -->
<g id="node6" class="node">
<title>A5</title>
<polygon fill="none" stroke="#000000" points="201.5,-436 201.5,-468 408.5,-468 408.5,-436 201.5,-436"/>
<text text-anchor="start" x="268.742" y="-449" font-family="Helvetica,sans-Serif" font-size="10.00" fill="#000000">+A:Requirement</text>
<polygon fill="none" stroke="#000000" points="201.5,-380 201.5,-436 408.5,-436 408.5,-380 201.5,-380"/>
<text text-anchor="start" x="259.578" y="-417" font-family="Helvetica,sans-Serif" font-size="10.00" fill="#000000">+displayName:string</text>
<text text-anchor="start" x="270.413" y="-405" font-family="Helvetica,sans-Serif" font-size="10.00" fill="#000000">+bool:isFulfilled</text>
<text text-anchor="start" x="241.7915" y="-393" font-family="Helvetica,sans-Serif" font-size="10.00" fill="#000000">+validCourses:List&lt;string&gt;:g</text>
<polygon fill="none" stroke="#000000" points="201.5,-348 201.5,-380 408.5,-380 408.5,-348 201.5,-348"/>
<text text-anchor="start" x="211.2435" y="-361" font-family="Helvetica,sans-Serif" font-size="10.00" fill="#000000">+FulfillsRequirement(course:Course):bool </text>
<polygon fill="none" stroke="#000000" points="201.5,-316 201.5,-348 408.5,-348 408.5,-316 201.5,-316"/>
<text text-anchor="start" x="257.779" y="-329" font-family="Helvetica,sans-Serif" font-size="10.00" fill="#000000"> (displayName:string)</text>
</g>
<!-- A0&#45;&gt;A5 -->
<g id="edge1" class="edge">
<title>A0&#45;&gt;A5</title>
<path fill="none" stroke="#000000" d="M248.333,-517.7652C255.5983,-501.4973 263.2198,-484.4319 270.4223,-468.3043"/>
<text text-anchor="middle" x="270.7485" y="-485.3017" font-family="Helvetica,sans-Serif" font-size="10.00" fill="#000000">1..*</text>
<text text-anchor="middle" x="248.0069" y="-494.7678" font-family="Helvetica,sans-Serif" font-size="10.00" fill="#000000">1</text>
</g>
<!-- A2 -->
<g id="node3" class="node">
<title>A2</title>
<polygon fill="none" stroke="#000000" points="54.5,-232 54.5,-264 187.5,-264 187.5,-232 54.5,-232"/>
<text text-anchor="start" x="101.4085" y="-245" font-family="Helvetica,sans-Serif" font-size="10.00" fill="#000000">+Section</text>
<polygon fill="none" stroke="#000000" points="54.5,-140 54.5,-232 187.5,-232 187.5,-140 54.5,-140"/>
<text text-anchor="start" x="84.4665" y="-213" font-family="Helvetica,sans-Serif" font-size="10.00" fill="#000000">+courseID:string</text>
<text text-anchor="start" x="94.4655" y="-201" font-family="Helvetica,sans-Serif" font-size="10.00" fill="#000000">+number:int</text>
<text text-anchor="start" x="83.632" y="-189" font-family="Helvetica,sans-Serif" font-size="10.00" fill="#000000">+professor:string</text>
<text text-anchor="start" x="74.733" y="-177" font-family="Helvetica,sans-Serif" font-size="10.00" fill="#000000">+seats:SeatManager</text>
<text text-anchor="start" x="65.843" y="-165" font-family="Helvetica,sans-Serif" font-size="10.00" fill="#000000">+sessions:List&lt;Session&gt;</text>
<text text-anchor="start" x="64.1805" y="-153" font-family="Helvetica,sans-Serif" font-size="10.00" fill="#000000"> +ParentCourse:Course:g</text>
</g>
<!-- A1&#45;&gt;A2 -->
<g id="edge3" class="edge">
<title>A1&#45;&gt;A2</title>
<path fill="none" stroke="#000000" d="M120.5,-307.8828C120.5,-293.1665 120.5,-278.0971 120.5,-264.1124"/>
<polygon fill="#000000" stroke="#000000" points="120.5,-317.997 116.0001,-307.9969 120.5,-312.997 120.5001,-307.997 120.5001,-307.997 120.5001,-307.997 120.5,-312.997 125.0001,-307.997 120.5,-317.997 120.5,-317.997"/>
</g>
<!-- A3 -->
<g id="node4" class="node">
<title>A3</title>
<polygon fill="none" stroke="#000000" points=".5,-56 .5,-88 113.5,-88 113.5,-56 .5,-56"/>
<text text-anchor="start" x="36.298" y="-69" font-family="Helvetica,sans-Serif" font-size="10.00" fill="#000000">+Session</text>
<polygon fill="none" stroke="#000000" points=".5,0 .5,-56 113.5,-56 113.5,0 .5,0"/>
<text text-anchor="start" x="10.194" y="-37" font-family="Helvetica,sans-Serif" font-size="10.00" fill="#000000">+startTime:DateTime</text>
<text text-anchor="start" x="11.5785" y="-25" font-family="Helvetica,sans-Serif" font-size="10.00" fill="#000000">+endTime:DateTime</text>
<text text-anchor="start" x="23.242" y="-13" font-family="Helvetica,sans-Serif" font-size="10.00" fill="#000000">+location:string</text>
</g>
<!-- A2&#45;&gt;A3 -->
<g id="edge4" class="edge">
<title>A2&#45;&gt;A3</title>
<path fill="none" stroke="#000000" d="M95.2055,-139.5542C88.2875,-122.4753 80.9316,-104.3156 74.5112,-88.4652"/>
<text text-anchor="middle" x="89.1504" y="-99.0921" font-family="Helvetica,sans-Serif" font-size="10.00" fill="#000000">1..*</text>
<text text-anchor="middle" x="80.5663" y="-122.9273" font-family="Helvetica,sans-Serif" font-size="10.00" fill="#000000">1</text>
</g>
<!-- A4 -->
<g id="node5" class="node">
<title>A4</title>
<polygon fill="none" stroke="#000000" points="131.5,-56 131.5,-88 239.5,-88 239.5,-56 131.5,-56"/>
<text text-anchor="start" x="152.571" y="-69" font-family="Helvetica,sans-Serif" font-size="10.00" fill="#000000">+SeatManager</text>
<polygon fill="none" stroke="#000000" points="131.5,0 131.5,-56 239.5,-56 239.5,0 131.5,0"/>
<text text-anchor="start" x="148.6825" y="-37" font-family="Helvetica,sans-Serif" font-size="10.00" fill="#000000">+seatPosition:int</text>
<text text-anchor="start" x="141.4645" y="-25" font-family="Helvetica,sans-Serif" font-size="10.00" fill="#000000">+waitListPosition:int</text>
<text text-anchor="start" x="157.575" y="-13" font-family="Helvetica,sans-Serif" font-size="10.00" fill="#000000">+capacity:int</text>
</g>
<!-- A2&#45;&gt;A4 -->
<g id="edge5" class="edge">
<title>A2&#45;&gt;A4</title>
<path fill="none" stroke="#000000" d="M146.1897,-139.5542C153.2159,-122.4753 160.6866,-104.3156 167.2074,-88.4652"/>
<text text-anchor="middle" x="168.1279" y="-105.444" font-family="Helvetica,sans-Serif" font-size="10.00" fill="#000000">1</text>
<text text-anchor="middle" x="145.2692" y="-116.5754" font-family="Helvetica,sans-Serif" font-size="10.00" fill="#000000">1</text>
</g>
<!-- A6 -->
<g id="node7" class="node">
<title>A6</title>
<polygon fill="none" stroke="#000000" points="222.5,-234 222.5,-266 350.5,-266 350.5,-234 222.5,-234"/>
<text text-anchor="start" x="241.079" y="-247" font-family="Helvetica,sans-Serif" font-size="10.00" fill="#000000">+MajorRequirement </text>
<polygon fill="none" stroke="#000000" points="222.5,-214 222.5,-234 350.5,-234 350.5,-214 222.5,-214"/>
<polygon fill="none" stroke="#000000" points="222.5,-194 222.5,-214 350.5,-214 350.5,-194 222.5,-194"/>
<polygon fill="none" stroke="#000000" points="222.5,-138 222.5,-194 350.5,-194 350.5,-138 222.5,-138"/>
<text text-anchor="start" x="265.945" y="-175" font-family="Helvetica,sans-Serif" font-size="10.00" fill="#000000">(id:string,</text>
<text text-anchor="start" x="232.3195" y="-163" font-family="Helvetica,sans-Serif" font-size="10.00" fill="#000000">completed:List&lt;Course&gt;</text>
<text text-anchor="start" x="265.3895" y="-151" font-family="Helvetica,sans-Serif" font-size="10.00" fill="#000000">):base(id)</text>
</g>
<!-- A5&#45;&gt;A6 -->
<g id="edge6" class="edge">
<title>A5&#45;&gt;A6</title>
<path fill="none" stroke="#000000" stroke-dasharray="5,2" d="M296.3273,-305.7321C295.0705,-292.4664 293.792,-278.9716 292.591,-266.2943"/>
<polygon fill="#000000" stroke="#000000" points="297.2824,-315.8145 291.8593,-306.2835 296.8108,-310.8368 296.3392,-305.8591 296.3392,-305.8591 296.3392,-305.8591 296.8108,-310.8368 300.8191,-305.4346 297.2824,-315.8145 297.2824,-315.8145"/>
</g>
<!-- A7 -->
<g id="node8" class="node">
<title>A7</title>
<polygon fill="none" stroke="#000000" points="368.5,-234 368.5,-266 496.5,-266 496.5,-234 368.5,-234"/>
<text text-anchor="start" x="383.1845" y="-247" font-family="Helvetica,sans-Serif" font-size="10.00" fill="#000000">+GeneralRequirement</text>
<polygon fill="none" stroke="#000000" points="368.5,-214 368.5,-234 496.5,-234 496.5,-214 368.5,-214"/>
<polygon fill="none" stroke="#000000" points="368.5,-194 368.5,-214 496.5,-214 496.5,-194 368.5,-194"/>
<polygon fill="none" stroke="#000000" points="368.5,-138 368.5,-194 496.5,-194 496.5,-138 368.5,-138"/>
<text text-anchor="start" x="411.945" y="-175" font-family="Helvetica,sans-Serif" font-size="10.00" fill="#000000">(id:string,</text>
<text text-anchor="start" x="378.3195" y="-163" font-family="Helvetica,sans-Serif" font-size="10.00" fill="#000000">completed:List&lt;Course&gt;</text>
<text text-anchor="start" x="411.3895" y="-151" font-family="Helvetica,sans-Serif" font-size="10.00" fill="#000000">):base(id)</text>
</g>
<!-- A5&#45;&gt;A7 -->
<g id="edge7" class="edge">
<title>A5&#45;&gt;A7</title>
<path fill="none" stroke="#000000" stroke-dasharray="5,2" d="M361.5667,-307.2917C370.8404,-293.526 380.3105,-279.4688 389.186,-266.2943"/>
<polygon fill="#000000" stroke="#000000" points="355.825,-315.8145 357.6801,-305.0067 358.6186,-311.6677 361.4122,-307.5209 361.4122,-307.5209 361.4122,-307.5209 358.6186,-311.6677 365.1443,-310.0352 355.825,-315.8145 355.825,-315.8145"/>
</g>
</g>
</svg>
